# xmcd
# Track frame offsets:
# 150
# 13813
# 27114
# 46099
# 58369
# 72412
# 86594
# 99867
# 111827
# 122561
# 134904
# 151270
# 166187
# 177259
# 194684
# 206369
# 222623
# 238031
# 249367
# 264925
#
# Disc length: 3736 seconds
# Revision: 0
# Processed by: cddbd v1.5.2PL0 Copyright (c) Steve Scherf et al.
# Submitted via: VisiTrax 2.10.0.248 - For more info visit www.synapsa.com
#
DISCID=1d0e9614
DTITLE=Dolly Parton - The very best of ...
DYEAR=1900
DGENRE=
TTITLE0=9 to 5
TTITLE1=I will always love you
TTITLE2=Islands in the stream (m/Kenny Rogers)
TTITLE3=Jolene
TTITLE4=Coat of many colors
TTITLE5=My Tennessee mountain home
TTITLE6=Here you come again
TTITLE7=Baby I'm burnin'
TTITLE8=Love is like a butterfly
TTITLE9=Bargain store
TTITLE10=Potential new boyfriend
TTITLE11=Everything's beautiful (m/Willy Nelson)
TTITLE12=Silver threads and golden needles (m/Tammy Wynette, Loretta Lynn)
TTITLE13=To know him is to love him (m/Linda Ronstadt, Emmylou Harris)
TTITLE14=Why'd you come in here lookin' like that
TTITLE15=Romeo (m/Billy Ray Cyrus, Tanya Tucker, Mary Chapin Carpenter, Kathy M
TTITLE15=attea and Pam Tillis)
TTITLE16=Tennessee homesick blues
TTITLE17=Dumb blonde
TTITLE18=Applejack
TTITLE19=Old flames can't hold a candle to you
EXTD=
EXTT0=
EXTT1=
EXTT2=
EXTT3=
EXTT4=
EXTT5=
EXTT6=
EXTT7=
EXTT8=
EXTT9=
EXTT10=
EXTT11=
EXTT12=
EXTT13=
EXTT14=
EXTT15=
EXTT16=
EXTT17=
EXTT18=
EXTT19=
PLAYORDER=
